# This file uses centimeters as units for non-parametric coordinates.

mtllib pump.mtl
g default
v 11.227777 4.650690 0.000000
v 8.593371 8.593362 0.000000
v 4.650702 11.227772 0.000000
v 0.000006 12.152855 0.000000
v -4.650691 11.227777 0.000000
v -8.593363 8.593370 0.000000
v -11.227773 4.650701 0.000000
v -12.152856 0.000004 0.000000
v -11.227777 -4.650692 0.000000
v -8.593369 -8.593364 0.000000
v -4.650699 -11.227774 0.000000
v -0.000002 -12.152856 0.000000
v 4.650695 -11.227776 0.000000
v 8.593366 -8.593368 0.000000
v 11.227775 -4.650697 0.000000
v 12.152856 0.000000 0.000000
v 10.104733 4.185511 2.274179
v 7.733830 7.733822 2.274179
v 4.185522 10.104728 2.274179
v 0.000006 10.937282 2.274179
v -4.185512 10.104733 2.274179
v -7.733823 7.733829 2.274179
v -10.104730 4.185521 2.274179
v -10.937283 0.000004 2.274179
v -10.104732 -4.185513 2.274179
v -7.733828 -7.733824 2.274179
v -4.185518 -10.104731 2.274179
v -0.000002 -10.937283 2.274179
v 4.185515 -10.104732 2.274179
v 7.733826 -7.733827 2.274179
v 10.104731 -4.185517 2.274179
v 10.937283 0.000000 2.274179
v 8.593369 3.559484 4.267515
v 6.577082 6.577075 4.267515
v 3.559494 8.593364 4.267515
v 0.000005 9.301393 4.267515
v -3.559485 8.593369 4.267515
v -6.577075 6.577081 4.267515
v -8.593366 3.559492 4.267515
v -9.301394 0.000003 4.267515
v -8.593368 -3.559486 4.267515
v -6.577080 -6.577076 4.267515
v -3.559491 -8.593366 4.267515
v -0.000001 -9.301394 4.267515
v 3.559488 -8.593368 4.267515
v 6.577077 -6.577078 4.267515
v 8.593367 -3.559489 4.267515
v 9.301394 0.000000 4.267515
v 6.751767 2.796669 5.903403
v 5.167580 5.167574 5.903403
v 2.796676 6.751764 5.903403
v 0.000004 7.308057 5.903403
v -2.796669 6.751766 5.903403
v -5.167575 5.167580 5.903403
v -6.751764 2.796675 5.903403
v -7.308058 0.000003 5.903403
v -6.751766 -2.796670 5.903403
v -5.167579 -5.167576 5.903403
v -2.796674 -6.751764 5.903403
v -0.000001 -7.308058 5.903403
v 2.796672 -6.751765 5.903403
v 5.167577 -5.167578 5.903403
v 6.751765 -2.796673 5.903403
v 7.308058 0.000000 5.903403
v 4.650698 1.926379 7.118978
v 3.559491 3.559487 7.118978
v 1.926384 4.650696 7.118978
v 0.000003 5.033878 7.118978
v -1.926380 4.650698 7.118978
v -3.559488 3.559491 7.118978
v -4.650696 1.926383 7.118978
v -5.033878 0.000002 7.118978
v -4.650697 -1.926380 7.118978
v -3.559490 -3.559489 7.118978
v -1.926383 -4.650697 7.118978
v -0.000001 -5.033878 7.118978
v 1.926381 -4.650697 7.118978
v 3.559489 -3.559489 7.118978
v 4.650697 -1.926382 7.118978
v 5.033878 0.000000 7.118978
v 2.370905 0.982059 7.867524
v 1.814613 1.814611 7.867524
v 0.982062 2.370904 7.867524
v 0.000001 2.566248 7.867524
v -0.982060 2.370905 7.867524
v -1.814611 1.814613 7.867524
v -2.370904 0.982062 7.867524
v -2.566249 0.000001 7.867524
v -2.370905 -0.982060 7.867524
v -1.814612 -1.814611 7.867524
v -0.982061 -2.370904 7.867524
v -0.000000 -2.566249 7.867524
v 0.982061 -2.370905 7.867524
v 1.814612 -1.814612 7.867524
v 2.370904 -0.982061 7.867524
v 2.566249 0.000000 7.867524
v 0.000000 0.000000 8.120278
vt 0.960100 0.690579
vt 0.852146 0.852146
vt 0.816922 0.816922
vt 0.914079 0.671517
vt 0.690578 0.960100
vt 0.671517 0.914079
vt 0.499998 0.998008
vt 0.499998 0.948197
vt 0.309420 0.960100
vt 0.328482 0.914079
vt 0.147855 0.852146
vt 0.183079 0.816924
vt 0.039901 0.690580
vt 0.085922 0.671518
vt 0.001992 0.500000
vt 0.051804 0.500000
vt 0.039901 0.309422
vt 0.085922 0.328484
vt 0.147855 0.147857
vt 0.183079 0.183079
vt 0.309418 0.039901
vt 0.328482 0.085922
vt 0.499998 0.001992
vt 0.499998 0.051806
vt 0.690578 0.039901
vt 0.671515 0.085922
vt 0.852146 0.147855
vt 0.816922 0.183079
vt 0.960100 0.309420
vt 0.914079 0.328483
vt 0.998008 0.500000
vt 0.948195 0.500000
vt 0.769521 0.769521
vt 0.852146 0.645863
vt 0.645862 0.852146
vt 0.499998 0.881159
vt 0.354137 0.852146
vt 0.230480 0.769521
vt 0.147855 0.645864
vt 0.118842 0.500000
vt 0.147855 0.354138
vt 0.230480 0.230480
vt 0.354135 0.147855
vt 0.499998 0.118842
vt 0.645862 0.147855
vt 0.769519 0.230480
vt 0.852146 0.354137
vt 0.881159 0.500000
vt 0.711760 0.711761
vt 0.776679 0.614605
vt 0.614604 0.776679
vt 0.499998 0.799476
vt 0.385395 0.776679
vt 0.288239 0.711761
vt 0.223322 0.614605
vt 0.200525 0.500000
vt 0.223322 0.385396
vt 0.288239 0.288240
vt 0.385395 0.223322
vt 0.499998 0.200527
vt 0.614604 0.223322
vt 0.711760 0.288240
vt 0.776679 0.385396
vt 0.799474 0.500000
vt 0.645862 0.645864
vt 0.690578 0.578941
vt 0.578940 0.690580
vt 0.499998 0.706282
vt 0.421059 0.690580
vt 0.354135 0.645864
vt 0.309418 0.578941
vt 0.293718 0.500000
vt 0.309418 0.421060
vt 0.354135 0.354137
vt 0.421059 0.309420
vt 0.499998 0.293719
vt 0.578940 0.309420
vt 0.645862 0.354137
vt 0.690578 0.421060
vt 0.706281 0.500000
vt 0.574360 0.574361
vt 0.597156 0.540243
vt 0.540243 0.597157
vt 0.499998 0.605162
vt 0.459755 0.597157
vt 0.425639 0.574361
vt 0.402843 0.540244
vt 0.394838 0.500000
vt 0.402843 0.459756
vt 0.425639 0.425640
vt 0.459755 0.402844
vt 0.499998 0.394839
vt 0.540243 0.402844
vt 0.574360 0.425640
vt 0.597156 0.459756
vt 0.605161 0.500000
vt 0.499998 0.500000
vn 0.812521 0.342933 0.471388
vn 0.619437 0.627767 0.471388
vn 0.771104 0.326814 0.546435
vn 0.587341 0.597025 0.546435
vn 0.332049 0.817029 0.471388
vn 0.314161 0.776345 0.546435
vn -0.005890 0.881906 0.471388
vn -0.006848 0.837473 0.546435
vn -0.342933 0.812521 0.471388
vn -0.326814 0.771104 0.546435
vn -0.627767 0.619437 0.471388
vn -0.597025 0.587341 0.546435
vn -0.817029 0.332049 0.471388
vn -0.776345 0.314161 0.546435
vn -0.881906 -0.005891 0.471388
vn -0.837474 -0.006848 0.546435
vn -0.812521 -0.342933 0.471389
vn -0.771104 -0.326814 0.546435
vn -0.619437 -0.627767 0.471388
vn -0.587341 -0.597026 0.546435
vn -0.332049 -0.817029 0.471388
vn -0.314161 -0.776345 0.546435
vn 0.005891 -0.881906 0.471388
vn 0.006848 -0.837474 0.546435
vn 0.342933 -0.812521 0.471388
vn 0.326814 -0.771104 0.546435
vn 0.627767 -0.619437 0.471388
vn 0.597026 -0.587341 0.546435
vn 0.817029 -0.332049 0.471389
vn 0.776345 -0.314160 0.546435
vn 0.881906 0.005891 0.471388
vn 0.837474 0.006848 0.546435
vn 0.659423 0.281933 0.696904
vn 0.501336 0.512822 0.696904
vn 0.266925 0.665639 0.696904
vn -0.008122 0.717118 0.696904
vn -0.281933 0.659423 0.696904
vn -0.512823 0.501336 0.696904
vn -0.665639 0.266925 0.696904
vn -0.717118 -0.008122 0.696904
vn -0.659423 -0.281933 0.696904
vn -0.501336 -0.512823 0.696904
vn -0.266925 -0.665639 0.696904
vn 0.008122 -0.717118 0.696904
vn 0.281934 -0.659423 0.696904
vn 0.512823 -0.501336 0.696904
vn 0.665639 -0.266925 0.696904
vn 0.717118 0.008122 0.696904
vn 0.523284 0.225906 0.821669
vn 0.397001 0.408962 0.821669
vn 0.210278 0.529758 0.821669
vn -0.008458 0.569902 0.821669
vn -0.225906 0.523284 0.821669
vn -0.408962 0.397001 0.821669
vn -0.529757 0.210278 0.821669
vn -0.569902 -0.008458 0.821669
vn -0.523284 -0.225906 0.821669
vn -0.397001 -0.408962 0.821669
vn -0.210278 -0.529757 0.821669
vn 0.008458 -0.569902 0.821669
vn 0.225906 -0.523284 0.821669
vn 0.408962 -0.397001 0.821669
vn 0.529757 -0.210278 0.821669
vn 0.569902 0.008458 0.821669
vn 0.367489 0.160430 0.916086
vn 0.278122 0.288850 0.916086
vn 0.146413 0.373295 0.916086
vn -0.007586 0.400910 0.916086
vn -0.160430 0.367489 0.916086
vn -0.288850 0.278122 0.916086
vn -0.373295 0.146413 0.916086
vn -0.400910 -0.007586 0.916086
vn -0.367489 -0.160430 0.916086
vn -0.278122 -0.288850 0.916086
vn -0.146413 -0.373295 0.916086
vn 0.007586 -0.400910 0.916086
vn 0.160430 -0.367489 0.916086
vn 0.288850 -0.278122 0.916086
vn 0.373295 -0.146413 0.916086
vn 0.400910 0.007586 0.916086
vn 0.196671 0.087688 0.976540
vn 0.148144 0.156276 0.976540
vn 0.077062 0.201072 0.976541
vn -0.005750 0.215257 0.976540
vn -0.087688 0.196671 0.976541
vn -0.156276 0.148144 0.976541
vn -0.201073 0.077063 0.976541
vn -0.215257 -0.005750 0.976541
vn -0.196671 -0.087688 0.976541
vn -0.148144 -0.156276 0.976541
vn -0.077062 -0.201072 0.976541
vn 0.005750 -0.215257 0.976541
vn 0.087688 -0.196671 0.976541
vn 0.156276 -0.148144 0.976541
vn 0.201073 -0.077063 0.976541
vn 0.215257 0.005750 0.976541
vn 0.000000 0.000000 1.000000
s 1
g pump_mesh
usemtl lambert2SG
f 1/1/1 2/2/2 17/4/3
f 17/4/3 2/2/2 18/3/4
f 2/2/2 3/5/5 18/3/4
f 18/3/4 3/5/5 19/6/6
f 3/5/5 4/7/7 19/6/6
f 19/6/6 4/7/7 20/8/8
f 4/7/7 5/9/9 20/8/8
f 20/8/8 5/9/9 21/10/10
f 5/9/9 6/11/11 21/10/10
f 21/10/10 6/11/11 22/12/12
f 6/11/11 7/13/13 22/12/12
f 22/12/12 7/13/13 23/14/14
f 7/13/13 8/15/15 23/14/14
f 23/14/14 8/15/15 24/16/16
f 8/15/15 9/17/17 24/16/16
f 24/16/16 9/17/17 25/18/18
f 9/17/17 10/19/19 25/18/18
f 25/18/18 10/19/19 26/20/20
f 10/19/19 11/21/21 26/20/20
f 26/20/20 11/21/21 27/22/22
f 11/21/21 12/23/23 27/22/22
f 27/22/22 12/23/23 28/24/24
f 12/23/23 13/25/25 28/24/24
f 28/24/24 13/25/25 29/26/26
f 13/25/25 14/27/27 29/26/26
f 29/26/26 14/27/27 30/28/28
f 14/27/27 15/29/29 30/28/28
f 30/28/28 15/29/29 31/30/30
f 15/29/29 16/31/31 31/30/30
f 31/30/30 16/31/31 32/32/32
f 16/31/31 1/1/1 32/32/32
f 32/32/32 1/1/1 17/4/3
f 17/4/3 18/3/4 33/34/33
f 33/34/33 18/3/4 34/33/34
f 18/3/4 19/6/6 34/33/34
f 34/33/34 19/6/6 35/35/35
f 19/6/6 20/8/8 35/35/35
f 35/35/35 20/8/8 36/36/36
f 20/8/8 21/10/10 36/36/36
f 36/36/36 21/10/10 37/37/37
f 21/10/10 22/12/12 37/37/37
f 37/37/37 22/12/12 38/38/38
f 22/12/12 23/14/14 38/38/38
f 38/38/38 23/14/14 39/39/39
f 23/14/14 24/16/16 39/39/39
f 39/39/39 24/16/16 40/40/40
f 24/16/16 25/18/18 40/40/40
f 40/40/40 25/18/18 41/41/41
f 25/18/18 26/20/20 41/41/41
f 41/41/41 26/20/20 42/42/42
f 26/20/20 27/22/22 42/42/42
f 42/42/42 27/22/22 43/43/43
f 27/22/22 28/24/24 43/43/43
f 43/43/43 28/24/24 44/44/44
f 28/24/24 29/26/26 44/44/44
f 44/44/44 29/26/26 45/45/45
f 29/26/26 30/28/28 45/45/45
f 45/45/45 30/28/28 46/46/46
f 30/28/28 31/30/30 46/46/46
f 46/46/46 31/30/30 47/47/47
f 31/30/30 32/32/32 47/47/47
f 47/47/47 32/32/32 48/48/48
f 32/32/32 17/4/3 48/48/48
f 48/48/48 17/4/3 33/34/33
f 33/34/33 34/33/34 49/50/49
f 49/50/49 34/33/34 50/49/50
f 34/33/34 35/35/35 50/49/50
f 50/49/50 35/35/35 51/51/51
f 35/35/35 36/36/36 51/51/51
f 51/51/51 36/36/36 52/52/52
f 36/36/36 37/37/37 52/52/52
f 52/52/52 37/37/37 53/53/53
f 37/37/37 38/38/38 53/53/53
f 53/53/53 38/38/38 54/54/54
f 38/38/38 39/39/39 54/54/54
f 54/54/54 39/39/39 55/55/55
f 39/39/39 40/40/40 55/55/55
f 55/55/55 40/40/40 56/56/56
f 40/40/40 41/41/41 56/56/56
f 56/56/56 41/41/41 57/57/57
f 41/41/41 42/42/42 57/57/57
f 57/57/57 42/42/42 58/58/58
f 42/42/42 43/43/43 58/58/58
f 58/58/58 43/43/43 59/59/59
f 43/43/43 44/44/44 59/59/59
f 59/59/59 44/44/44 60/60/60
f 44/44/44 45/45/45 60/60/60
f 60/60/60 45/45/45 61/61/61
f 45/45/45 46/46/46 61/61/61
f 61/61/61 46/46/46 62/62/62
f 46/46/46 47/47/47 62/62/62
f 62/62/62 47/47/47 63/63/63
f 47/47/47 48/48/48 63/63/63
f 63/63/63 48/48/48 64/64/64
f 48/48/48 33/34/33 64/64/64
f 64/64/64 33/34/33 49/50/49
f 49/50/49 50/49/50 65/66/65
f 65/66/65 50/49/50 66/65/66
f 50/49/50 51/51/51 66/65/66
f 66/65/66 51/51/51 67/67/67
f 51/51/51 52/52/52 67/67/67
f 67/67/67 52/52/52 68/68/68
f 52/52/52 53/53/53 68/68/68
f 68/68/68 53/53/53 69/69/69
f 53/53/53 54/54/54 69/69/69
f 69/69/69 54/54/54 70/70/70
f 54/54/54 55/55/55 70/70/70
f 70/70/70 55/55/55 71/71/71
f 55/55/55 56/56/56 71/71/71
f 71/71/71 56/56/56 72/72/72
f 56/56/56 57/57/57 72/72/72
f 72/72/72 57/57/57 73/73/73
f 57/57/57 58/58/58 73/73/73
f 73/73/73 58/58/58 74/74/74
f 58/58/58 59/59/59 74/74/74
f 74/74/74 59/59/59 75/75/75
f 59/59/59 60/60/60 75/75/75
f 75/75/75 60/60/60 76/76/76
f 60/60/60 61/61/61 76/76/76
f 76/76/76 61/61/61 77/77/77
f 61/61/61 62/62/62 77/77/77
f 77/77/77 62/62/62 78/78/78
f 62/62/62 63/63/63 78/78/78
f 78/78/78 63/63/63 79/79/79
f 63/63/63 64/64/64 79/79/79
f 79/79/79 64/64/64 80/80/80
f 64/64/64 49/50/49 80/80/80
f 80/80/80 49/50/49 65/66/65
f 65/66/65 66/65/66 81/82/81
f 81/82/81 66/65/66 82/81/82
f 66/65/66 67/67/67 82/81/82
f 82/81/82 67/67/67 83/83/83
f 67/67/67 68/68/68 83/83/83
f 83/83/83 68/68/68 84/84/84
f 68/68/68 69/69/69 84/84/84
f 84/84/84 69/69/69 85/85/85
f 69/69/69 70/70/70 85/85/85
f 85/85/85 70/70/70 86/86/86
f 70/70/70 71/71/71 86/86/86
f 86/86/86 71/71/71 87/87/87
f 71/71/71 72/72/72 87/87/87
f 87/87/87 72/72/72 88/88/88
f 72/72/72 73/73/73 88/88/88
f 88/88/88 73/73/73 89/89/89
f 73/73/73 74/74/74 89/89/89
f 89/89/89 74/74/74 90/90/90
f 74/74/74 75/75/75 90/90/90
f 90/90/90 75/75/75 91/91/91
f 75/75/75 76/76/76 91/91/91
f 91/91/91 76/76/76 92/92/92
f 76/76/76 77/77/77 92/92/92
f 92/92/92 77/77/77 93/93/93
f 77/77/77 78/78/78 93/93/93
f 93/93/93 78/78/78 94/94/94
f 78/78/78 79/79/79 94/94/94
f 94/94/94 79/79/79 95/95/95
f 79/79/79 80/80/80 95/95/95
f 95/95/95 80/80/80 96/96/96
f 80/80/80 65/66/65 96/96/96
f 96/96/96 65/66/65 81/82/81
f 81/82/81 82/81/82 97/97/97
f 82/81/82 83/83/83 97/97/97
f 83/83/83 84/84/84 97/97/97
f 84/84/84 85/85/85 97/97/97
f 85/85/85 86/86/86 97/97/97
f 86/86/86 87/87/87 97/97/97
f 87/87/87 88/88/88 97/97/97
f 88/88/88 89/89/89 97/97/97
f 89/89/89 90/90/90 97/97/97
f 90/90/90 91/91/91 97/97/97
f 91/91/91 92/92/92 97/97/97
f 92/92/92 93/93/93 97/97/97
f 93/93/93 94/94/94 97/97/97
f 94/94/94 95/95/95 97/97/97
f 95/95/95 96/96/96 97/97/97
f 96/96/96 81/82/81 97/97/97
