# This file uses centimeters as units for non-parametric coordinates.

mtllib flame.mtl
g default
v -0.000000 0.708316 -1.331627
v -0.500855 0.500855 -1.331627
v -0.708316 0.000000 -1.331627
v -0.500855 -0.500856 -1.331627
v -0.000000 -0.708316 -1.331627
v -1.333479 1.515877 -2.635149
v -2.429339 0.365868 -2.957503
v -2.112889 -1.622004 -3.147179
v -0.011842 -1.836653 -2.528801
v 0.000000 -0.000000 -0.500000
v -0.264235 2.453156 -2.977362
v -1.266537 1.278623 -2.451030
v -1.937276 -0.152269 -2.592350
v -1.471136 -1.972226 -3.025877
v 0.500855 0.500855 -1.331627
v 0.708316 0.000000 -1.331627
v 0.500855 -0.500856 -1.331627
v 1.304888 1.342227 -2.517216
v 1.911495 0.103699 -2.545632
v 2.262981 -1.537499 -3.197649
v 0.161300 -2.197471 -2.824185
v 0.156100 2.192104 -2.770600
v 1.881542 1.533364 -2.933815
v 1.923473 -0.042726 -2.570481
v 1.578975 -1.996738 -3.093690
v -0.000000 0.708316 -1.398383
v -0.500855 0.500855 -1.398383
v -0.708316 0.000000 -1.398383
v -0.500855 -0.500856 -1.398383
v -0.000000 -0.708316 -1.398383
v 0.000000 -0.000000 -0.566756
v 0.500855 0.500855 -1.398383
v 0.708316 0.000000 -1.398383
v 0.500855 -0.500856 -1.398383
v -0.500855 0.500855 1.331627
v -0.708316 0.000000 1.331627
v -0.500855 -0.500855 1.331627
v 0.000000 -0.708317 1.331627
v 0.500855 -0.500855 1.331627
v -2.014799 0.128975 2.635149
v -1.976510 -1.459095 2.957503
v -0.347108 -2.640968 3.147179
v 1.290336 -1.307083 2.528801
v 0.000000 -0.000000 0.500000
v -1.921486 1.547801 2.977362
v -1.799700 0.008546 2.451030
v -1.262190 -1.477531 2.592350
v 0.354324 -2.434825 3.025877
v -0.000000 0.708316 1.331627
v 0.500855 0.500855 1.331627
v 0.708317 -0.000000 1.331627
v -0.026402 1.871793 2.517216
v 1.278305 1.424957 2.545632
v 2.687346 0.512993 3.197649
v 1.667903 -1.439790 2.824185
v -1.439673 1.660431 2.770600
v 0.246199 2.414703 2.933815
v 1.390313 1.329889 2.570481
v 2.528411 -0.295403 3.093690
v -0.500855 0.500855 1.398383
v -0.708316 0.000000 1.398383
v -0.500855 -0.500855 1.398383
v 0.000000 -0.708317 1.398383
v 0.500855 -0.500855 1.398383
v 0.000000 -0.000000 0.566756
v -0.000000 0.708316 1.398383
v 0.500855 0.500855 1.398383
v 0.708317 -0.000000 1.398383
vt 0.500000 0.533190
vt 0.464390 1.000000
vt 0.172161 0.879118
vt 0.476967 0.523662
vt 0.122610 0.828493
vt 0.001564 0.536658
vt 0.467426 0.500660
vt 0.000000 0.465554
vt 0.121045 0.173720
vt 0.476967 0.477658
vt 0.170975 0.120882
vt 0.463204 0.000000
vt 0.500000 0.468130
vt 0.500000 0.500660
vt 0.523033 0.523662
vt 0.827839 0.879118
vt 0.535610 1.000000
vt 0.532574 0.500660
vt 0.998435 0.536658
vt 0.877390 0.828493
vt 0.523033 0.477658
vt 0.878953 0.173720
vt 1.000000 0.465554
vt 0.536796 0.000000
vt 0.829024 0.120882
vt 0.500000 0.533190
vt 0.476967 0.523662
vt 0.172161 0.879118
vt 0.464390 1.000000
vt 0.467426 0.500660
vt 0.001564 0.536658
vt 0.122610 0.828493
vt 0.476967 0.477658
vt 0.121045 0.173720
vt 0.000000 0.465554
vt 0.500000 0.468130
vt 0.463204 0.000000
vt 0.170975 0.120882
vt 0.500000 0.500660
vt 0.535610 1.000000
vt 0.827839 0.879118
vt 0.523033 0.523662
vt 0.877390 0.828493
vt 0.998435 0.536658
vt 0.532574 0.500660
vt 1.000000 0.465554
vt 0.878953 0.173720
vt 0.523033 0.477658
vt 0.829024 0.120882
vt 0.536796 0.000000
vt 0.500000 0.533190
vt 0.464390 1.000000
vt 0.172161 0.879118
vt 0.476967 0.523662
vt 0.122610 0.828493
vt 0.001564 0.536658
vt 0.467426 0.500660
vt 0.000000 0.465554
vt 0.121045 0.173720
vt 0.476967 0.477658
vt 0.170975 0.120882
vt 0.463204 0.000000
vt 0.500000 0.468130
vt 0.500000 0.500660
vt 0.523033 0.523662
vt 0.827839 0.879118
vt 0.535610 1.000000
vt 0.532574 0.500660
vt 0.998435 0.536658
vt 0.877390 0.828493
vt 0.523033 0.477658
vt 0.878953 0.173720
vt 1.000000 0.465554
vt 0.536796 0.000000
vt 0.829024 0.120882
vt 0.500000 0.533190
vt 0.476967 0.523662
vt 0.172161 0.879118
vt 0.464390 1.000000
vt 0.467426 0.500660
vt 0.001564 0.536658
vt 0.122610 0.828493
vt 0.476967 0.477658
vt 0.121045 0.173720
vt 0.000000 0.465554
vt 0.500000 0.468130
vt 0.463204 0.000000
vt 0.170975 0.120882
vt 0.500000 0.500660
vt 0.535610 1.000000
vt 0.827839 0.879118
vt 0.523033 0.523662
vt 0.877390 0.828493
vt 0.998435 0.536658
vt 0.532574 0.500660
vt 1.000000 0.465554
vt 0.878953 0.173720
vt 0.523033 0.477658
vt 0.829024 0.120882
vt 0.536796 0.000000
vn -0.013129 0.685407 0.728042
vn -0.308305 0.634695 0.708598
vn -0.308305 0.634695 0.708598
vn -0.476939 0.509469 0.716220
vn -0.618589 0.347065 0.704907
vn -0.618589 0.347065 0.704907
vn -0.684035 0.047064 0.727929
vn -0.673224 -0.210462 0.708855
vn -0.673224 -0.210462 0.708855
vn -0.480853 -0.478016 0.735038
vn -0.200876 -0.693565 0.691822
vn -0.200876 -0.693565 0.691822
vn 0.032820 -0.703197 0.710238
vn -0.000000 -0.000000 1.000000
vn 0.516331 0.463451 0.720150
vn 0.311571 0.651804 0.691429
vn 0.311571 0.651804 0.691429
vn 0.696270 0.011008 0.717696
vn 0.671196 0.224592 0.706438
vn 0.671196 0.224592 0.706438
vn 0.479077 -0.471349 0.740483
vn 0.678270 -0.179087 0.712655
vn 0.678270 -0.179087 0.712655
vn 0.241010 -0.667787 0.704255
vn 0.241010 -0.667787 0.704255
vn 0.012685 -0.670544 -0.741761
vn 0.466313 -0.496227 -0.732332
vn 0.295594 -0.622150 -0.724950
vn 0.295594 -0.622150 -0.724950
vn 0.669051 -0.036771 -0.742307
vn 0.607377 -0.329817 -0.722713
vn 0.607377 -0.329817 -0.722713
vn 0.471353 0.469079 -0.746854
vn 0.654601 0.214666 -0.724856
vn 0.654601 0.214666 -0.724856
vn -0.030781 0.687792 -0.725255
vn 0.204549 0.674881 -0.709010
vn 0.204549 0.674881 -0.709010
vn 0.000000 0.000000 -1.000000
vn -0.299347 -0.637224 -0.710167
vn -0.299347 -0.637224 -0.710167
vn -0.500866 -0.456513 -0.735343
vn -0.652137 -0.225722 -0.723717
vn -0.652137 -0.225722 -0.723717
vn -0.679709 -0.008228 -0.733436
vn -0.659720 0.185238 -0.728324
vn -0.659720 0.185238 -0.728324
vn -0.468098 0.464603 -0.751684
vn -0.239789 0.652272 -0.719057
vn -0.239789 0.652272 -0.719057
vn -0.493939 0.475372 -0.728042
vn -0.697496 0.023002 -0.716220
vn -0.666801 0.230793 -0.708598
vn -0.666801 0.230793 -0.708598
vn -0.516965 -0.450407 -0.727929
vn -0.682820 -0.191997 -0.704907
vn -0.682820 -0.191997 -0.704907
vn -0.002006 -0.678023 -0.735038
vn -0.327223 -0.624860 -0.708855
vn -0.327223 -0.624860 -0.708854
vn 0.520442 -0.474028 -0.710238
vn 0.348384 -0.632465 -0.691822
vn 0.348384 -0.632465 -0.691822
vn 0.000000 -0.000000 -1.000000
vn -0.240582 0.681209 -0.691429
vn -0.240582 0.681209 -0.691429
vn 0.037392 0.692810 -0.720150
vn 0.315797 0.633418 -0.706438
vn 0.315797 0.633418 -0.706438
vn 0.484553 0.500121 -0.717696
vn 0.606243 0.352976 -0.712655
vn 0.606243 0.352976 -0.712655
vn 0.672053 0.005465 -0.740483
vn 0.642617 -0.301776 -0.704255
vn 0.642617 -0.301776 -0.704255
vn 0.483116 -0.465177 0.741761
vn 0.648944 -0.230910 0.724950
vn 0.648944 -0.230910 0.724950
vn 0.680619 -0.021152 0.732332
vn 0.662696 0.196265 0.722713
vn 0.662696 0.196265 0.722713
vn 0.499091 0.447089 0.742307
vn 0.311081 0.614665 0.724856
vn 0.311081 0.614665 0.724855
vn 0.001608 0.664986 0.746854
vn -0.332575 0.621851 0.709010
vn -0.332575 0.621851 0.709010
vn -0.508108 0.464577 0.725255
vn -0.000000 0.000000 1.000000
vn -0.031363 -0.676969 0.735343
vn 0.238915 -0.662256 0.710167
vn 0.238915 -0.662256 0.710167
vn -0.474809 -0.486445 0.733436
vn -0.301521 -0.620740 0.723717
vn -0.301521 -0.620740 0.723717
vn -0.659519 -0.002471 0.751684
vn -0.597476 -0.335509 0.728324
vn -0.597476 -0.335509 0.728324
vn -0.630782 0.291670 0.719057
vn -0.630782 0.291670 0.719057
s 1
g flame_mesh
usemtl lambert2SG
f 1/1/1 11/2/2 6/3/3 2/4/4
f 2/4/4 12/5/5 7/6/6 3/7/7
f 3/7/7 13/8/8 8/9/9 4/10/10
f 4/10/10 14/11/11 9/12/12 5/13/13
f 2/4/4 10/14/14 1/1/1
f 3/7/7 10/14/14 2/4/4
f 4/10/10 10/14/14 3/7/7
f 5/13/13 10/14/14 4/10/10
f 1/1/1 15/15/15 18/16/16 22/17/17
f 15/15/15 16/18/18 19/19/19 23/20/20
f 16/18/18 17/21/21 20/22/22 24/23/23
f 17/21/21 5/13/13 21/24/24 25/25/25
f 15/15/15 1/1/1 10/14/14
f 16/18/18 15/15/15 10/14/14
f 17/21/21 16/18/18 10/14/14
f 5/13/13 17/21/21 10/14/14
s 7
f 26/26/26 27/27/27 6/28/28 11/29/29
f 27/27/27 28/30/30 7/31/31 12/32/32
f 28/30/30 29/33/33 8/34/34 13/35/35
f 29/33/33 30/36/36 9/37/37 14/38/38
f 27/27/27 26/26/26 31/39/39
f 28/30/30 27/27/27 31/39/39
f 29/33/33 28/30/30 31/39/39
f 30/36/36 29/33/33 31/39/39
f 26/26/26 22/40/40 18/41/41 32/42/42
f 32/42/42 23/43/43 19/44/44 33/45/45
f 33/45/45 24/46/46 20/47/47 34/48/48
f 34/48/48 25/49/49 21/50/50 30/36/36
f 32/42/42 31/39/39 26/26/26
f 33/45/45 31/39/39 32/42/42
f 34/48/48 31/39/39 33/45/45
f 30/36/36 31/39/39 34/48/48
s 13
f 35/51/51 36/54/52 40/53/53 45/52/54
f 36/54/52 37/57/55 41/56/56 46/55/57
f 37/57/55 38/60/58 42/59/59 47/58/60
f 38/60/58 39/63/61 43/62/62 48/61/63
f 36/54/52 35/51/51 44/64/64
f 37/57/55 36/54/52 44/64/64
f 38/60/58 37/57/55 44/64/64
f 39/63/61 38/60/58 44/64/64
f 35/51/51 56/67/65 52/66/66 49/65/67
f 49/65/67 57/70/68 53/69/69 50/68/70
f 50/68/70 58/73/71 54/72/72 51/71/73
f 51/71/73 59/75/74 55/74/75 39/63/61
f 49/65/67 44/64/64 35/51/51
f 50/68/70 44/64/64 49/65/67
f 51/71/73 44/64/64 50/68/70
f 39/63/61 44/64/64 51/71/73
s 19
f 60/76/76 45/79/77 40/78/78 61/77/79
f 61/77/79 46/82/80 41/81/81 62/80/82
f 62/80/82 47/85/83 42/84/84 63/83/85
f 63/83/85 48/88/86 43/87/87 64/86/88
f 61/77/79 65/89/89 60/76/76
f 62/80/82 65/89/89 61/77/79
f 63/83/85 65/89/89 62/80/82
f 64/86/88 65/89/89 63/83/85
f 60/76/76 66/92/90 52/91/91 56/90/92
f 66/92/90 67/95/93 53/94/94 57/93/95
f 67/95/93 68/98/96 54/97/97 58/96/98
f 68/98/96 64/86/88 55/100/99 59/99/100
f 66/92/90 60/76/76 65/89/89
f 67/95/93 66/92/90 65/89/89
f 68/98/96 67/95/93 65/89/89
f 64/86/88 68/98/96 65/89/89
