# This file uses centimeters as units for non-parametric coordinates.

mtllib tunnel.mtl
g default
v -4.542137 -10.965706 6.000000
v -8.392781 -8.392791 6.000000
v -10.965700 -4.542149 6.000000
v -11.869191 -0.000006 6.000000
v -10.965706 4.542138 6.000000
v -8.392790 8.392782 6.000000
v -4.542147 10.965702 6.000000
v -0.000004 11.869192 6.000000
v 4.542140 10.965705 6.000000
v 8.392784 8.392788 6.000000
v 10.965703 4.542145 6.000000
v 11.869192 0.000002 6.000000
v 10.965704 -4.542142 6.000000
v 8.392787 -8.392785 6.000000
v 4.542143 -10.965703 6.000000
v -0.000000 -11.869192 6.000000
v -4.542137 -10.965706 -6.000000
v -8.392781 -8.392791 -6.000000
v -10.965700 -4.542149 -6.000000
v -11.869191 -0.000006 -6.000000
v -10.965706 4.542138 -6.000000
v -8.392790 8.392782 -6.000000
v -4.542147 10.965702 -6.000000
v -0.000004 11.869192 -6.000000
v 4.542140 10.965705 -6.000000
v 8.392784 8.392788 -6.000000
v 10.965703 4.542145 -6.000000
v 11.869192 0.000002 -6.000000
v 10.965704 -4.542142 -6.000000
v 8.392787 -8.392785 -6.000000
v 4.542143 -10.965703 -6.000000
v 0.000000 -11.869192 -6.000000
v -5.085738 -9.709187 6.000000
v -5.085738 -9.709187 -6.000000
v -7.023882 -8.414163 -6.000000
v -7.023882 -8.414163 6.000000
v -10.461592 -3.269271 6.000000
v -10.461592 -3.269271 -6.000000
v -10.916345 -0.983076 -6.000000
v -10.916345 -0.983076 6.000000
v -9.709187 5.085740 6.000000
v -9.709187 5.085740 -6.000000
v -8.414162 7.023883 -6.000000
v -8.414162 7.023883 6.000000
v -3.269270 10.461594 6.000000
v -3.269270 10.461594 -6.000000
v -0.983075 10.916348 -6.000000
v -0.983075 10.916348 6.000000
v 5.085742 9.709186 6.000000
v 5.085742 9.709186 -6.000000
v 7.023885 8.414160 -6.000000
v 7.023885 8.414160 6.000000
v 10.461595 3.269268 6.000000
v 10.461595 3.269268 -6.000000
v 10.916348 0.983073 -6.000000
v 10.916348 0.983073 6.000000
v 9.709185 -5.085743 6.000000
v 9.709185 -5.085743 -6.000000
v 8.414160 -7.023886 -6.000000
v 8.414160 -7.023886 6.000000
v 3.269267 -10.461595 6.000000
v 3.269267 -10.461595 -6.000000
v 0.983071 -10.916348 -6.000000
v 0.983071 -10.916348 6.000000
v -15.353510 -16.719709 6.000000
v -15.353509 16.719713 6.000000
v 16.449276 16.719713 6.000000
v 16.449276 -16.719707 6.000000
vt 0.029857 0.251631
vt 0.454305 0.640888
vt 0.992543 0.251572
vt 0.454305 0.675007
vt 0.992535 0.186283
vt 0.454305 0.709126
vt 0.029849 0.186334
vt 0.454305 0.743245
vt 0.029835 0.251570
vt 0.454305 0.777364
vt 0.992521 0.251550
vt 0.454305 0.811483
vt 0.992519 0.186264
vt 0.454305 0.845603
vt 0.029833 0.186270
vt 0.454305 0.879722
vt 0.454305 0.896781
vt 0.029838 0.251503
vt 0.992524 0.251534
vt 0.043849 0.657947
vt 0.992530 0.186247
vt 0.043849 0.692066
vt 0.029843 0.186204
vt 0.043849 0.726185
vt 0.029864 0.251445
vt 0.043849 0.760305
vt 0.992550 0.251508
vt 0.043849 0.794424
vt 0.992560 0.186217
vt 0.043849 0.828543
vt 0.029873 0.186151
vt 0.043849 0.862662
vt 0.029898 0.251739
vt 0.043849 0.896781
vt 0.992584 0.251798
vt 0.992592 0.186501
vt 0.029906 0.186450
vt 0.029920 0.251717
vt 0.992606 0.251737
vt 0.992608 0.186437
vt 0.029921 0.186431
vt 0.029917 0.251700
vt 0.992603 0.251670
vt 0.992598 0.186371
vt 0.029911 0.186413
vt 0.029890 0.251675
vt 0.992577 0.251611
vt 0.992568 0.186317
vt 0.029881 0.186383
vt 0.029859 0.279151
vt 0.992545 0.279095
vt 0.992530 0.158766
vt 0.029843 0.158809
vt 0.029833 0.279093
vt 0.992519 0.279070
vt 0.992516 0.158746
vt 0.029829 0.158746
vt 0.029833 0.279028
vt 0.992519 0.279051
vt 0.992530 0.158726
vt 0.029843 0.158682
vt 0.029859 0.278970
vt 0.992545 0.279026
vt 0.992564 0.158152
vt 0.029877 0.158091
vt 0.029896 0.279261
vt 0.701992 0.597120
vt 0.648580 0.631062
vt 0.667568 0.630780
vt 0.694452 0.613696
vt 0.648580 0.631062
vt 0.701992 0.597120
vt 0.694452 0.613696
vt 0.667568 0.630780
vt 0.612891 0.681860
vt 0.600359 0.741780
vt 0.613576 0.728812
vt 0.619883 0.698652
vt 0.600359 0.741780
vt 0.612891 0.681860
vt 0.619883 0.698652
vt 0.613576 0.728812
vt 0.612891 0.801701
vt 0.648580 0.852499
vt 0.648283 0.834440
vt 0.630320 0.808872
vt 0.648580 0.852499
vt 0.612891 0.801701
vt 0.630320 0.808872
vt 0.648283 0.834440
vt 0.701992 0.886441
vt 0.764996 0.898359
vt 0.751360 0.885790
vt 0.719648 0.879790
vt 0.764996 0.898359
vt 0.701992 0.886441
vt 0.719648 0.879790
vt 0.751360 0.885790
vt 0.828000 0.886441
vt 0.881412 0.852499
vt 0.862424 0.852781
vt 0.835540 0.869865
vt 0.881412 0.852499
vt 0.828000 0.886441
vt 0.835540 0.869865
vt 0.862424 0.852781
vt 0.917101 0.801701
vt 0.929633 0.741780
vt 0.916416 0.754749
vt 0.910108 0.784909
vt 0.929633 0.741780
vt 0.917101 0.801701
vt 0.910108 0.784909
vt 0.916416 0.754749
vt 0.917101 0.681860
vt 0.881412 0.631062
vt 0.881708 0.649121
vt 0.899672 0.674689
vt 0.881412 0.631062
vt 0.917101 0.681860
vt 0.899672 0.674689
vt 0.881708 0.649121
vt 0.828000 0.597120
vt 0.764996 0.585201
vt 0.778632 0.597771
vt 0.810344 0.603770
vt 0.764996 0.585201
vt 0.828000 0.597120
vt 0.810344 0.603770
vt 0.778632 0.597771
vt 0.552028 0.521213
vt 0.552028 0.962348
vt 0.993163 0.962348
vt 0.993163 0.521213
vt 0.992582 0.279318
vt 0.043849 0.879722
vt 0.454305 0.862662
vt 0.992598 0.158976
vt 0.029911 0.158932
vt 0.043849 0.845603
vt 0.454305 0.828543
vt 0.029922 0.279236
vt 0.992608 0.279260
vt 0.043849 0.811483
vt 0.454305 0.794424
vt 0.992612 0.158912
vt 0.029925 0.158912
vt 0.043849 0.777364
vt 0.454305 0.760305
vt 0.029922 0.279218
vt 0.992608 0.279195
vt 0.043849 0.743245
vt 0.454305 0.726186
vt 0.992598 0.158849
vt 0.029911 0.158892
vt 0.043849 0.709126
vt 0.454305 0.692066
vt 0.029896 0.279193
vt 0.992582 0.279136
vt 0.043849 0.675007
vt 0.454305 0.657947
vt 0.992564 0.158798
vt 0.029877 0.158859
vt 0.043849 0.640888
vn 0.555570 0.831470 0.000000
vn 0.555569 0.831470 0.000000
vn 0.555570 0.831470 0.000000
vn 0.555569 0.831470 0.000000
vn 0.831469 0.555571 0.000000
vn 0.831469 0.555571 0.000000
vn 0.831469 0.555571 0.000000
vn 0.831469 0.555571 0.000000
vn 0.980785 0.195091 0.000000
vn 0.980785 0.195090 0.000000
vn 0.980785 0.195091 0.000000
vn 0.980785 0.195090 0.000000
vn 0.980785 -0.195090 0.000000
vn 0.980785 -0.195089 0.000000
vn 0.980785 -0.195090 0.000000
vn 0.980786 -0.195089 0.000000
vn 0.831470 -0.555570 0.000000
vn 0.831470 -0.555570 0.000000
vn 0.831470 -0.555570 0.000000
vn 0.831470 -0.555570 0.000000
vn 0.555571 -0.831469 0.000000
vn 0.555571 -0.831469 0.000000
vn 0.555571 -0.831469 0.000000
vn 0.555571 -0.831469 0.000000
vn 0.195091 -0.980785 0.000000
vn 0.195091 -0.980785 0.000000
vn 0.195091 -0.980785 0.000000
vn 0.195091 -0.980785 0.000000
vn -0.195090 -0.980785 0.000000
vn -0.195090 -0.980785 0.000000
vn -0.195090 -0.980785 0.000000
vn -0.195090 -0.980785 0.000000
vn -0.555570 -0.831470 0.000000
vn -0.555570 -0.831470 0.000000
vn -0.555570 -0.831470 0.000000
vn -0.555570 -0.831470 0.000000
vn -0.831470 -0.555570 0.000000
vn -0.831469 -0.555571 0.000000
vn -0.831469 -0.555570 0.000000
vn -0.831469 -0.555571 0.000000
vn -0.980786 -0.195089 0.000000
vn -0.980785 -0.195091 0.000000
vn -0.980785 -0.195090 0.000000
vn -0.980785 -0.195091 0.000000
vn -0.980785 0.195090 0.000000
vn -0.980785 0.195090 0.000000
vn -0.980785 0.195090 0.000000
vn -0.980785 0.195090 0.000000
vn -0.831470 0.555570 0.000000
vn -0.831470 0.555570 0.000000
vn -0.831470 0.555570 0.000000
vn -0.831470 0.555570 0.000000
vn -0.555570 0.831469 0.000000
vn -0.555570 0.831470 0.000000
vn -0.555570 0.831470 0.000000
vn -0.555570 0.831470 0.000000
vn -0.195090 0.980785 0.000000
vn -0.195090 0.980785 0.000000
vn -0.195090 0.980785 0.000000
vn -0.195090 0.980785 0.000000
vn 0.195090 0.980785 0.000000
vn 0.195090 0.980785 0.000000
vn 0.195090 0.980785 0.000000
vn 0.195090 0.980785 0.000000
vn 0.917793 0.397060 0.000000
vn 0.917793 0.397060 0.000000
vn 0.917793 0.397060 0.000000
vn 0.917793 0.397060 0.000000
vn 0.000000 0.000000 -1.000000
vn 0.000000 0.000000 -1.000000
vn 0.000000 0.000000 -1.000000
vn 0.000000 0.000000 -1.000000
vn 0.015611 0.999878 0.000000
vn 0.015611 0.999878 0.000000
vn 0.015611 0.999878 0.000000
vn 0.015611 0.999878 0.000000
vn 0.000000 0.000000 1.000000
vn 0.000000 0.000000 1.000000
vn 0.000000 0.000000 1.000000
vn 0.000000 0.000000 1.000000
vn 0.929741 -0.368214 0.000000
vn 0.929741 -0.368213 0.000000
vn 0.929741 -0.368214 0.000000
vn 0.929741 -0.368213 0.000000
vn -0.000002 0.000000 -1.000000
vn -0.000000 0.000000 -1.000000
vn -0.000002 0.000000 -1.000000
vn 0.000001 0.000000 -1.000000
vn 0.718058 0.695983 0.000000
vn 0.718059 0.695982 0.000000
vn 0.718058 0.695983 0.000000
vn 0.718059 0.695982 0.000000
vn -0.000001 0.000000 1.000000
vn -0.000001 0.000000 1.000000
vn -0.000001 0.000000 1.000000
vn 0.000000 0.000000 1.000000
vn 0.397060 -0.917793 0.000000
vn 0.397060 -0.917793 0.000000
vn 0.397060 -0.917793 0.000000
vn 0.397060 -0.917793 0.000000
vn 0.000000 0.000000 -1.000000
vn -0.000001 0.000000 -1.000000
vn -0.000000 0.000000 -1.000000
vn -0.000001 0.000000 -1.000000
vn 0.999878 -0.015610 0.000000
vn 0.999878 -0.015611 0.000000
vn 0.999878 -0.015610 0.000000
vn 0.999878 -0.015611 0.000000
vn -0.000001 0.000000 1.000000
vn -0.000000 0.000000 1.000000
vn -0.000001 0.000000 1.000000
vn 0.000000 0.000000 1.000000
vn -0.368213 -0.929741 0.000000
vn -0.368213 -0.929741 0.000000
vn -0.368213 -0.929741 0.000000
vn -0.368213 -0.929741 0.000000
vn 0.000000 0.000000 -1.000000
vn 0.000000 0.000000 -1.000000
vn 0.000000 0.000000 -1.000000
vn 0.000000 0.000000 -1.000000
vn 0.695982 -0.718059 0.000000
vn 0.695982 -0.718059 0.000000
vn 0.695982 -0.718059 0.000000
vn 0.695982 -0.718059 0.000000
vn 0.000000 0.000000 1.000000
vn 0.000000 0.000000 1.000000
vn 0.000000 0.000000 1.000000
vn 0.000000 0.000000 1.000000
vn -0.917793 -0.397060 0.000000
vn -0.917793 -0.397060 0.000000
vn -0.917793 -0.397060 0.000000
vn -0.917793 -0.397060 0.000000
vn 0.000000 0.000000 -1.000000
vn 0.000000 0.000000 -1.000000
vn 0.000000 0.000000 -1.000000
vn 0.000000 0.000000 -1.000000
vn -0.015611 -0.999878 0.000000
vn -0.015611 -0.999878 0.000000
vn -0.015611 -0.999878 0.000000
vn -0.015611 -0.999878 0.000000
vn 0.000000 0.000000 1.000000
vn 0.000000 0.000000 1.000000
vn 0.000000 0.000000 1.000000
vn 0.000000 0.000000 1.000000
vn -0.929741 0.368214 0.000000
vn -0.929742 0.368213 0.000000
vn -0.929741 0.368214 0.000000
vn -0.929742 0.368213 0.000000
vn 0.000001 0.000000 -1.000000
vn -0.000001 0.000000 -1.000000
vn 0.000000 0.000000 -1.000000
vn -0.000002 0.000000 -1.000000
vn -0.718060 -0.695981 0.000000
vn -0.718059 -0.695982 0.000000
vn -0.718060 -0.695981 0.000000
vn -0.718059 -0.695982 0.000000
vn -0.000001 0.000000 1.000000
vn -0.000000 0.000000 1.000000
vn -0.000001 0.000000 1.000000
vn 0.000000 0.000000 1.000000
vn -0.397060 0.917793 0.000000
vn -0.397060 0.917793 0.000000
vn -0.397060 0.917793 0.000000
vn -0.397060 0.917793 0.000000
vn 0.000000 0.000000 -1.000000
vn 0.000000 0.000000 -1.000000
vn 0.000000 0.000000 -1.000000
vn 0.000000 0.000000 -1.000000
vn -0.999878 0.015611 0.000000
vn -0.999878 0.015612 0.000000
vn -0.999878 0.015611 0.000000
vn -0.999878 0.015612 0.000000
vn 0.000000 0.000000 1.000000
vn 0.000000 0.000000 1.000000
vn 0.000000 0.000000 1.000000
vn 0.000000 0.000000 1.000000
vn 0.368214 0.929741 0.000000
vn 0.368214 0.929741 0.000000
vn 0.368214 0.929741 0.000000
vn 0.368214 0.929741 0.000000
vn 0.000000 0.000000 -1.000000
vn 0.000000 0.000000 -1.000000
vn 0.000000 0.000000 -1.000000
vn 0.000000 0.000000 -1.000000
vn -0.695982 0.718060 0.000000
vn -0.695982 0.718060 0.000000
vn -0.695982 0.718060 0.000000
vn -0.695982 0.718060 0.000000
vn 0.000000 0.000000 1.000000
vn 0.000000 0.000000 1.000000
vn 0.000000 0.000000 1.000000
vn 0.000000 0.000000 1.000000
vn -0.000000 0.000000 1.000000
vn -0.000000 0.000000 1.000000
vn -0.000000 0.000000 1.000000
vn 0.000000 0.000000 1.000000
vn 0.000000 0.000000 1.000000
vn 0.000000 0.000000 1.000000
vn 0.000000 0.000000 1.000000
vn 0.000000 0.000000 1.000000
vn 0.000000 0.000000 1.000000
vn 0.000000 0.000000 1.000000
vn -0.000000 0.000000 1.000000
vn -0.000000 0.000000 1.000000
vn -0.000000 0.000000 1.000000
vn 0.000000 0.000000 1.000000
vn 0.000000 0.000000 1.000000
vn 0.000000 0.000000 1.000000
vn 0.000000 0.000000 1.000000
vn 0.000000 0.000000 1.000000
vn 0.000000 0.000000 1.000000
vn 0.000000 0.000000 1.000000
vn 0.000000 0.000000 1.000000
vn 0.000000 0.000000 1.000000
vn 0.000000 0.000000 1.000000
vn 0.000000 0.000000 1.000000
vn 0.000000 0.000000 1.000000
vn 0.000000 0.000000 1.000000
vn 0.000000 0.000000 1.000000
vn 0.000000 0.000000 1.000000
vn 0.000000 0.000000 1.000000
vn -0.000000 0.000000 1.000000
vn -0.000000 0.000000 1.000000
vn -0.000000 0.000000 1.000000
vn 0.000000 0.000000 1.000000
vn -0.000000 0.000000 1.000000
vn -0.000000 0.000000 1.000000
vn -0.000000 0.000000 1.000000
vn 0.000000 0.000000 1.000000
vn 0.000000 0.000000 1.000000
vn 0.000000 0.000000 1.000000
vn 0.000000 0.000000 1.000000
vn 0.000000 0.000000 1.000000
vn 0.000000 0.000000 1.000000
vn 0.000000 0.000000 1.000000
vn 0.000000 0.000000 1.000000
vn 0.000000 0.000000 1.000000
vn 0.000000 0.000000 1.000000
vn 0.000000 0.000000 1.000000
vn 0.000000 0.000000 1.000000
vn 0.000000 0.000000 1.000000
vn 0.000000 0.000000 1.000000
vn 0.000000 0.000000 1.000000
vn 0.000000 0.000000 1.000000
s 1
g tunnel_mesh3
usemtl lambert2SG
f 33/1/1 34/3/2 36/7/3
f 36/7/3 34/3/2 35/5/4
s 2
f 2/2/5 18/164/6 3/161/7
f 3/161/7 18/164/6 19/20/8
s 3
f 37/9/9 38/11/10 40/15/11
f 40/15/11 38/11/10 39/13/12
s 4
f 4/4/13 20/160/14 5/157/15
f 5/157/15 20/160/14 21/22/16
s 5
f 41/18/17 42/19/18 44/23/19
f 44/23/19 42/19/18 43/21/20
s 6
f 6/6/21 22/156/22 7/153/23
f 7/153/23 22/156/22 23/24/24
s 7
f 45/25/25 46/27/26 48/31/27
f 48/31/27 46/27/26 47/29/28
s 8
f 8/8/29 24/152/30 9/149/31
f 9/149/31 24/152/30 25/26/32
s 9
f 49/33/33 50/35/34 52/37/35
f 52/37/35 50/35/34 51/36/36
s 10
f 10/10/37 26/148/38 11/145/39
f 11/145/39 26/148/38 27/28/40
s 11
f 53/38/41 54/39/42 56/41/43
f 56/41/43 54/39/42 55/40/44
s 12
f 12/12/45 28/144/46 13/141/47
f 13/141/47 28/144/46 29/30/48
s 13
f 57/42/49 58/43/50 60/45/51
f 60/45/51 58/43/50 59/44/52
s 14
f 14/14/53 30/140/54 15/137/55
f 15/137/55 30/140/54 31/32/56
s 15
f 61/46/57 62/47/58 64/49/59
f 64/49/59 62/47/58 63/48/60
s 16
f 16/16/61 32/136/62 1/17/63
f 1/17/63 32/136/62 17/34/64
s 17
f 1/50/65 17/51/66 33/1/67
f 33/1/67 17/51/66 34/3/68
s 18
f 17/67/69 18/68/70 34/70/71
f 34/70/71 18/68/70 35/69/72
s 19
f 18/52/73 2/53/74 35/5/75
f 35/5/75 2/53/74 36/7/76
s 20
f 2/71/77 1/72/78 36/74/79
f 36/74/79 1/72/78 33/73/80
s 21
f 3/54/81 19/55/82 37/9/83
f 37/9/83 19/55/82 38/11/84
s 22
f 19/75/85 20/76/86 38/78/87
f 38/78/87 20/76/86 39/77/88
s 23
f 20/56/89 4/57/90 39/13/91
f 39/13/91 4/57/90 40/15/92
s 24
f 4/79/93 3/80/94 40/82/95
f 40/82/95 3/80/94 37/81/96
s 25
f 5/58/97 21/59/98 41/18/99
f 41/18/99 21/59/98 42/19/100
s 26
f 21/83/101 22/84/102 42/86/103
f 42/86/103 22/84/102 43/85/104
s 27
f 22/60/105 6/61/106 43/21/107
f 43/21/107 6/61/106 44/23/108
s 28
f 6/87/109 5/88/110 44/90/111
f 44/90/111 5/88/110 41/89/112
s 29
f 7/62/113 23/63/114 45/25/115
f 45/25/115 23/63/114 46/27/116
s 30
f 23/91/117 24/92/118 46/94/119
f 46/94/119 24/92/118 47/93/120
s 31
f 24/64/121 8/65/122 47/29/123
f 47/29/123 8/65/122 48/31/124
s 32
f 8/95/125 7/96/126 48/98/127
f 48/98/127 7/96/126 45/97/128
s 33
f 9/66/129 25/135/130 49/33/131
f 49/33/131 25/135/130 50/35/132
s 34
f 25/99/133 26/100/134 50/102/135
f 50/102/135 26/100/134 51/101/136
s 35
f 26/138/137 10/139/138 51/36/139
f 51/36/139 10/139/138 52/37/140
s 36
f 10/103/141 9/104/142 52/106/143
f 52/106/143 9/104/142 49/105/144
s 37
f 11/142/145 27/143/146 53/38/147
f 53/38/147 27/143/146 54/39/148
s 38
f 27/107/149 28/108/150 54/110/151
f 54/110/151 28/108/150 55/109/152
s 39
f 28/146/153 12/147/154 55/40/155
f 55/40/155 12/147/154 56/41/156
s 40
f 12/111/157 11/112/158 56/114/159
f 56/114/159 11/112/158 53/113/160
s 41
f 13/150/161 29/151/162 57/42/163
f 57/42/163 29/151/162 58/43/164
s 42
f 29/115/165 30/116/166 58/118/167
f 58/118/167 30/116/166 59/117/168
s 43
f 30/154/169 14/155/170 59/44/171
f 59/44/171 14/155/170 60/45/172
s 44
f 14/119/173 13/120/174 60/122/175
f 60/122/175 13/120/174 57/121/176
s 45
f 15/158/177 31/159/178 61/46/179
f 61/46/179 31/159/178 62/47/180
s 46
f 31/123/181 32/124/182 62/126/183
f 62/126/183 32/124/182 63/125/184
s 47
f 32/162/185 16/163/186 63/48/187
f 63/48/187 16/163/186 64/49/188
s 48
f 16/127/189 15/128/190 64/130/191
f 64/130/191 15/128/190 61/129/192
s off
f 1/72/193 2/71/194 65/131/195
f 2/71/196 3/80/197 65/131/198
s 49
f 3/80/199 4/79/200 65/131/201
f 65/131/201 4/79/200 66/132/202
s off
f 4/79/203 5/88/204 66/132/205
f 5/88/206 6/87/207 66/132/208
f 6/87/209 7/96/210 66/132/211
s 50
f 7/96/212 8/95/213 66/132/214
f 66/132/214 8/95/213 67/133/215
s off
f 8/95/216 9/104/217 67/133/218
f 9/104/219 10/103/220 67/133/221
f 10/103/222 11/112/223 67/133/224
s 51
f 11/112/225 12/111/226 67/133/227
f 67/133/227 12/111/226 68/134/228
s off
f 12/111/229 13/120/230 68/134/231
f 13/120/232 14/119/233 68/134/234
f 14/119/235 15/128/236 68/134/237
s 52
f 15/128/238 16/127/239 68/134/240
f 68/134/240 16/127/239 65/131/241
s off
f 16/127/242 1/72/243 65/131/244
